<?xml version="1.0" encoding="UTF-8"?>
<svg id="drapeau de la Guadeloupe" width="2400" height="1600" version="1.1" viewBox="0 0 2400 1600" xmlns="http://www.w3.org/2000/svg">
 <defs id="defs1132">
  <clipPath id="clipPath840">
   <path id="path838" d="M 0,566.93 H 566.93 V 0 H 0 Z"/>
  </clipPath>
 </defs>
 <path id="fond" d="m-0 0h2400v1600h-2400v-1600z" fill="#FFFFFF"/>
 <g id="logo" transform="matrix(3.0787969,0,0,3.0787969,-2427.5699,-4806.2444)">
  <path id="path832" d="m1058.2526 2028.7939h235.5439v-17.3267h-235.5439z" fill="#fff200" fill-rule="evenodd"/>
  <g id="g834" transform="matrix(1.3333333,0,0,-1.3333333,800.28989,2198.8752)">
   <g id="g836" clip-path="url(#clipPath840)">
    <g id="g842" transform="translate(193.4722,283.1313)">
     <path id="path844" d="m 0,0 v 129.901 h 140.676 c 0,0 -59.263,-29.333 -81.413,-110.746 C 43.1,7.783 0,0 0,0" fill="#127bca" fill-rule="evenodd"/>
    </g>
    <g id="g846" transform="translate(175.1748,266.9014)">
     <path id="path848" d="m0 0c-8.484 10.794-13.544 24.408-13.544 39.201 0 35.066 28.428 63.494 63.493 63.494 22.552 0 42.359-11.758 53.623-29.478-3.862-10.295-13.041-20.671-18.79-42.807-46.929-4.204-70.076-25.354-84.782-30.41" fill="#fff200" fill-rule="evenodd"/>
    </g>
    <g id="g850" transform="translate(193.4722,260.9834)">
     <path id="path852" d="m0 0v-20.354h175.397v157.438c-77.821-36.517-103.562-108.952-103.562-108.952s-40.707-5.386-71.835-28.132" fill="#00a650" fill-rule="evenodd"/>
    </g>
    <g id="g854" transform="translate(452.0762,439.3711)">
     <path id="path856" d="M 0,0 C 0,0 -142.074,-22.548 -191.159,-136.684 -151.252,-2.195 0,0 0,0" fill="#2e3192" fill-rule="evenodd"/>
    </g>
    <g id="g858" transform="translate(259.957,297.3115)">
     <path id="path860" d="M 0,0 C 0,0 -86.04,-13.782 -145.104,-89.607 -86.838,3.778 0,0 0,0" fill="#2e3192" fill-rule="evenodd"/>
    </g>
    <g id="g862" transform="translate(197.7832,213.4941)">
     <path id="path864" d="m0 0c2.245 0 3.438 1.668 3.438 4.821 0 3.488-1.146 5.109-3.628 5.157v-9.978zm-4.296 13.797h3.438c6.587 0 8.402-4.822 8.402-8.832 0-3.056-1.099-5.299-3.295-6.827 1.911-1.384 3.248-4.917 4.344-9.693l1.48-6.542h-4.296l-1.24 5.492c-1.433 6.255-2.388 9.024-4.727 8.786v-14.278h-4.106z" fill="#231f20"/>
    </g>
    <g id="g866" transform="translate(210.8696,227.291)">
     <path id="path868" d="m0 0h11.362v-3.819h-7.257v-9.549h6.637v-3.82h-6.637v-10.885h7.639v-3.821h-11.744z" fill="#231f20"/>
    </g>
    <g id="g870" transform="translate(242.1455,196.8789)">
     <path id="path872" d="m0 0c-2.053-1.336-3.724-1.91-5.634-1.91-6.349 0-10.503 5.827-10.503 16.328 0 10.024 3.867 16.425 10.026 16.425 1.909 0 3.628-0.622 6.111-2.293v-4.393c-2.578 2.292-4.058 3.104-5.92 3.104-4.249 0-6.11-4.442-6.11-12.843 0-8.02 1.909-12.508 6.492-12.508 0.477 0 0.812 0.047 1.432 0.143v9.787h-2.817v3.821h6.923z" fill="#231f20"/>
    </g>
    <path id="path874" d="m246.972 227.291h4.106v-31.894h-4.106z" fill="#231f20"/>
    <g id="g876" transform="translate(264.0195,198.7891)">
     <path id="path878" d="m0 0c2.625 0 4.2 4.679 4.2 12.558 0 8.019-1.575 12.553-4.296 12.553-3.343 0-4.201-6.826-4.201-12.553 0-8.022 1.527-12.558 4.297-12.558m-0.048 28.933c5.681 0 8.546-7.642 8.546-16.375 0-11.173-4.154-16.378-8.546-16.378-4.822 0-8.547 5.777-8.547 16.378 0 7.78 2.293 16.375 8.547 16.375" fill="#231f20"/>
    </g>
    <g id="g880" transform="translate(276.9624,227.291)">
     <path id="path882" d="m0 0h3.341l7.064-19.671h0.097v19.671h3.773v-31.894h-3.344l-7.064 19.863h-0.096v-19.863h-3.771z" fill="#231f20"/>
    </g>
    <g id="g884" transform="translate(208.4307,151.7773)">
     <path id="path886" d="m0 0c-2.054-1.336-3.725-1.908-5.634-1.908-6.349 0-10.503 5.826-10.503 16.326 0 10.027 3.867 16.426 10.026 16.426 1.909 0 3.628-0.623 6.111-2.293v-4.394c-2.578 2.293-4.059 3.104-5.92 3.104-4.249 0-6.111-4.439-6.111-12.843 0-8.019 1.909-12.507 6.493-12.507 0.477 0 0.811 0.047 1.432 0.143v9.785h-2.817v3.822h6.923z" fill="#231f20"/>
    </g>
    <g id="g888" transform="translate(217.2671,182.1895)">
     <path id="path890" d="m0 0v-23.965c0-2.721 1.003-4.536 3.008-4.536 1.575 0 3.009 1.289 3.009 4.347v24.154h4.105v-23.679c0-6.876-4.535-8.641-7.114-8.641-3.962 0-7.113 3.247-7.113 8.307v24.013z" fill="#231f20"/>
    </g>
    <g id="g892" transform="translate(240.7148,161.1865)">
     <path id="path894" d="m0 0-2.244 13.365h-0.096l-2.243-13.365zm-4.393 21.193h4.249l5.968-32.081h-3.962l-1.147 7.066h-5.919l-1.241-7.066h-3.963z" fill="#231f20"/>
    </g>
    <g id="g896" transform="translate(254.23,154.1172)">
     <path id="path898" d="m0 0c4.772 0 6.636 3.39 6.636 11.983 0 9.024-1.719 12.271-6.541 12.271h-0.717v-24.254zm-4.727 28.072h4.536c8.212 0 10.933-6.493 10.933-15.896 0-13.273-5.825-15.994-10.361-15.994h-5.108z" fill="#231f20"/>
    </g>
    <g id="g900" transform="translate(269.5596,182.1895)">
     <path id="path902" d="m0 0h11.363v-3.818h-7.257v-9.549h6.636v-3.82h-6.636v-10.885h7.639v-3.819h-11.745z" fill="#231f20"/>
    </g>
    <g id="g904" transform="translate(285.7979,182.1895)">
     <path id="path906" d="m0 0h4.107v-28.072h7.876v-3.819h-11.983z" fill="#231f20"/>
    </g>
    <g id="g908" transform="translate(308.1895,153.6885)">
     <path id="path910" d="m0 0c2.628 0 4.203 4.679 4.203 12.555 0 8.023-1.575 12.557-4.298 12.557-3.342 0-4.198-6.828-4.198-12.557 0-8.019 1.526-12.555 4.293-12.555m-0.047 28.933c5.682 0 8.548-7.64 8.548-16.378 0-11.168-4.155-16.374-8.548-16.374-4.818 0-8.545 5.777-8.545 16.374 0 7.784 2.29 16.378 8.545 16.378" fill="#231f20"/>
    </g>
    <g id="g912" transform="translate(325.0039,182.1895)">
     <path id="path914" d="m0 0v-23.965c0-2.721 1.002-4.536 3.006-4.536 1.578 0 3.011 1.289 3.011 4.347v24.154h4.102v-23.679c0-6.876-4.534-8.641-7.113-8.641-3.961 0-7.112 3.247-7.112 8.307v24.013z" fill="#231f20"/>
    </g>
    <g id="g916" transform="translate(345.4912,168.1074)">
     <path id="path918" d="m0 0c3.292 0 5.01 1.86 5.01 5.49 0 3.248-1.958 4.869-5.73 4.774v-10.264zm-4.823 14.082h4.343c5.584 0 9.596-3.054 9.596-8.831 0-5.633-3.389-9.07-8.972-9.07h-0.864v-13.99h-4.103z" fill="#231f20"/>
    </g>
    <g id="g920" transform="translate(358.3828,182.1895)">
     <path id="path922" d="m0 0h11.365v-3.818h-7.26v-9.549h6.636v-3.82h-6.636v-10.885h7.642v-3.819h-11.747z" fill="#231f20"/>
    </g>
   </g>
  </g>
 </g>
</svg>
